<?xml version="1.0" encoding="UTF-8"?>
<svg version="1.1" xmlns="http://www.w3.org/2000/svg" width="766" height="418">
<path d="M0 0 C8.32896761 -0.07011826 16.65780786 -0.12312008 24.98699951 -0.15543652 C28.8563494 -0.17096213 32.72549449 -0.19195408 36.59472656 -0.22631836 C40.34248814 -0.25938801 44.09005522 -0.27695092 47.83795166 -0.28463173 C49.2537949 -0.29009133 50.66962991 -0.30074638 52.08538818 -0.31719017 C67.43261657 -0.48803426 84.26654528 0.62323427 96.41015625 11.07421875 C104.29979949 19.27887496 105.50029711 27.18895283 105.42016602 38.19287109 C105.06562902 49.11442279 101.83609039 58.19494363 94 66 C85.01516747 73.59209856 73.81243618 77.14895346 62.16796875 77.09765625 C60.87568359 77.09443359 59.58339844 77.09121094 58.25195312 77.08789062 C56.89713474 77.07953665 55.54231703 77.07107172 54.1875 77.0625 C52.81315265 77.05748 51.43880355 77.05291797 50.06445312 77.04882812 C46.70959076 77.03705668 43.35481779 77.02061283 40 77 C40.09369487 82.74776111 40.19982503 88.49510897 40.31738281 94.24243164 C40.35561789 96.19679509 40.39048027 98.15122759 40.421875 100.10571289 C40.46764435 102.91838222 40.52561923 105.73057839 40.5859375 108.54296875 C40.59748871 109.41398727 40.60903992 110.2850058 40.62094116 111.18241882 C40.72543068 115.49707326 40.85007443 119.13543308 43 123 C45.1382991 124.444194 45.1382991 124.444194 47.625 125.3125 C48.44226563 125.63863281 49.25953125 125.96476562 50.1015625 126.30078125 C50.72804688 126.53152344 51.35453125 126.76226562 52 127 C52 128.98 52 130.96 52 133 C34.84 133 17.68 133 0 133 C0 131.02 0 129.04 0 127 C1.71484375 125.390625 1.71484375 125.390625 3.9375 124.25 C7.080549 122.74190022 7.080549 122.74190022 9 120 C9.10016691 118.5796833 9.13937731 117.1548259 9.14717102 115.73100281 C9.15432632 114.83516479 9.16148163 113.93932678 9.16885376 113.01634216 C9.17154266 112.03085892 9.17423157 111.04537567 9.17700195 110.0300293 C9.18357315 108.99413666 9.19014435 107.95824402 9.19691467 106.89096069 C9.21667682 103.45204604 9.2283163 100.0131751 9.23828125 96.57421875 C9.24235678 95.40180948 9.2464323 94.22940022 9.25063133 93.02146339 C9.27150373 86.81712646 9.28580084 80.61281173 9.29516602 74.40844727 C9.30623758 67.99222044 9.34064315 61.57633975 9.38033772 55.1602354 C9.4064515 50.23347823 9.41485317 45.3068042 9.41844749 40.3799839 C9.42332638 38.01445997 9.43497714 35.64894006 9.45348549 33.28348351 C9.47776659 29.97475938 9.47693182 26.66693976 9.4699707 23.3581543 C9.48918579 21.88903847 9.48918579 21.88903847 9.50878906 20.39024353 C9.47584969 16.10052891 9.40383301 13.66642914 7.14250183 9.93464661 C4.85272258 7.86701073 2.93698856 6.89741317 0 6 C0 4.02 0 2.04 0 0 Z M40 11 C40 29.48 40 47.96 40 67 C56.6896179 67.42958705 56.6896179 67.42958705 70.66796875 59.67578125 C77.09972787 51.58421332 76.54286244 40.78157688 76 31 C74.96107665 24.33504257 72.57051955 18.12590544 67 14 C57.45895823 9.8881091 57.45895823 9.8881091 40 11 Z " fill="#38B6FF" transform="translate(260,140)"/>
<path d="M0 0 C0 9.57 0 19.14 0 29 C-4.29 29 -8.58 29 -13 29 C-14.171875 26.03776042 -15.34375 23.07552083 -16.515625 20.11328125 C-19.22347382 14.43392465 -22.04454879 11.24052169 -28 9 C-31.68014533 8.52842275 -31.68014533 8.52842275 -35.5 8.625 C-36.7684375 8.61726562 -38.036875 8.60953125 -39.34375 8.6015625 C-44.54719287 9.16860435 -47.80918643 10.68044983 -51.3125 14.5625 C-54.91781941 19.77018359 -54.54951365 24.8040345 -54 31 C-51.97965267 37.92322845 -45.36168201 42.94317294 -39.44824219 46.5612793 C-36.69384438 48.06220115 -33.91720158 49.50821555 -31.125 50.9375 C-18.18327024 57.78768407 -5.31277282 65.56145952 0 80 C2.97573048 90.42309919 2.85159905 102.13567868 -2 112 C-8.32746879 122.41652941 -17.10690327 127.89756402 -28.62890625 131.2734375 C-36.59154101 132.98960212 -44.25720851 133.1131886 -52.375 132.75 C-53.41414551 132.70552734 -54.45329102 132.66105469 -55.52392578 132.61523438 C-79.16910295 131.41544852 -79.16910295 131.41544852 -86 128 C-86 118.1 -86 108.2 -86 98 C-81.38 98 -76.76 98 -72 98 C-71.4225 99.69125 -70.845 101.3825 -70.25 103.125 C-67.57832939 110.40203288 -64.92029059 115.10733655 -58 119 C-51.38776412 121.15616388 -42.79603086 121.26088689 -36.4375 118.375 C-31.91016998 115.69107651 -29.64442369 111.93327108 -28 107 C-27.31459104 99.57912989 -27.73660583 92.9940048 -32.5703125 87.078125 C-38.00952321 81.74556548 -44.47566597 78.36765972 -51.11669922 74.78613281 C-64.79880696 67.38503412 -77.34958882 59.36661041 -82.68359375 44.03515625 C-85.54141878 34.0820415 -84.3844889 23.93306002 -79.4375 14.875 C-72.84900086 4.57647222 -62.66775418 -0.07485526 -51.125 -2.75 C-34.88095431 -5.69463776 -15.74315853 -5.24771951 0 0 Z " fill="#8D54FF" transform="translate(487,142)"/>
<path d="M0 0 C10.12749889 3.37583296 10.12749889 3.37583296 14.61328125 5.1796875 C16.20088257 5.81596069 16.20088257 5.81596069 17.82055664 6.46508789 C18.97289795 6.93035889 20.12523926 7.39562988 21.3125 7.875 C22.56301118 8.37831916 23.81358332 8.88148687 25.06420898 9.38452148 C27.96333585 10.55123125 30.86166615 11.719901 33.75976562 12.88916016 C38.78344397 14.91461971 43.81131246 16.92956494 48.83930969 18.9442749 C53.56300632 20.83800443 58.28510722 22.73569171 63.00692749 24.63409424 C65.37342323 25.58480362 67.7404673 26.53414926 70.10806274 27.4821167 C73.47082014 28.82908283 76.83134038 30.18149247 80.19140625 31.53515625 C81.71619598 32.14389839 81.71619598 32.14389839 83.27178955 32.76493835 C84.21665222 33.14680801 85.16151489 33.52867767 86.13500977 33.92211914 C87.36828758 34.41742882 87.36828758 34.41742882 88.6264801 34.92274475 C91.23725413 36.10768111 93.62267809 37.39535079 96 39 C96.56762695 41.17651367 96.56762695 41.17651367 96.48828125 43.66796875 C96.47216797 44.56064453 96.45605469 45.45332031 96.43945312 46.37304688 C96.39755859 47.30181641 96.35566406 48.23058594 96.3125 49.1875 C96.28994141 50.12787109 96.26738281 51.06824219 96.24414062 52.03710938 C96.18519022 54.35975536 96.09870375 56.67880477 96 59 C90.18603757 61.99930953 84.31116729 64.59303581 78.23828125 67.01953125 C77.30560425 67.39544403 76.37292725 67.77135681 75.4119873 68.15866089 C72.38012126 69.37985874 69.34640171 70.59636925 66.3125 71.8125 C62.08293321 73.5120262 57.85399735 75.21311996 53.625 76.9140625 C52.03423393 77.55322853 52.03423393 77.55322853 50.41133118 78.20530701 C43.53358347 80.97131019 36.66877518 83.76717144 29.8125 86.5859375 C28.0999025 87.28812405 26.38725738 87.99019446 24.67456055 88.69213867 C22.25901113 89.6821779 19.84443322 90.67426585 17.43276978 91.67373657 C15.23500636 92.58424893 13.03396209 93.48634177 10.83203125 94.38671875 C10.1925354 94.65451141 9.55303955 94.92230408 8.89416504 95.19821167 C5.62966761 96.52330723 3.6053352 97 0 97 C0 90.4 0 83.8 0 77 C15.00963323 71.11210796 30.09475173 65.43392338 45.19543457 59.7845459 C48.45482054 58.56487942 51.71371452 57.34389974 54.97265625 56.12304688 C61.31463675 53.7474486 67.65714039 51.37325003 74 49 C49.3802625 39.5403542 24.7046384 30.23549822 0 21 C0 14.07 0 7.14 0 0 Z " fill="#8E55FF" transform="translate(527,167)"/>
<path d="M0 0 C0 6.6 0 13.2 0 20 C-2.49304688 20.93199219 -4.98609375 21.86398438 -7.5546875 22.82421875 C-29.7390728 31.12364932 -51.88642405 39.51387699 -74 48 C-73.22040924 48.29179138 -72.44081848 48.58358276 -71.63760376 48.88421631 C-64.25279385 51.64848879 -56.86839066 54.41384451 -49.48443031 57.18038559 C-45.68922147 58.60229012 -41.89386244 60.02379082 -38.09814453 61.44433594 C-34.42786912 62.81795184 -30.7580087 64.1926712 -27.08842087 65.56812286 C-25.69570699 66.0899324 -24.3028497 66.61135932 -22.90983963 67.13237762 C-15.23741142 70.00235008 -7.59199984 72.9223348 0 76 C0 82.6 0 89.2 0 96 C-5.81181392 94.06272869 -11.48696078 92.09086464 -17.15234375 89.8046875 C-17.91429047 89.49964294 -18.67623718 89.19459839 -19.46127319 88.88031006 C-21.95444903 87.88125738 -24.44603665 86.87831493 -26.9375 85.875 C-28.68704413 85.17224135 -30.43663814 84.4696069 -32.1862793 83.76708984 C-35.87267612 82.28608272 -39.55821372 80.80296173 -43.24316406 79.31835938 C-47.13736622 77.74950328 -51.03258635 76.1832164 -54.92871094 74.61914062 C-59.78985979 72.66760543 -64.64953752 70.71245258 -69.50808716 68.75445557 C-71.37344613 68.00319668 -73.23922848 67.25298817 -75.10543823 66.50384521 C-77.71355687 65.45636742 -80.3198816 64.40454628 -82.92578125 63.3515625 C-83.70206879 63.04079773 -84.47835632 62.73003296 -85.27816772 62.40985107 C-88.4136864 61.1383178 -91.17457145 59.88361903 -94 58 C-94.34057617 55.84521484 -94.34057617 55.84521484 -94.29296875 53.2109375 C-94.2784668 51.79941406 -94.2784668 51.79941406 -94.26367188 50.359375 C-94.23853516 49.37453125 -94.21339844 48.3896875 -94.1875 47.375 C-94.17396484 46.38242188 -94.16042969 45.38984375 -94.14648438 44.3671875 C-94.11105743 41.91091928 -94.06166196 39.45572715 -94 37 C-71.97182208 28.05665109 -49.93150939 19.143115 -27.86712646 10.28942871 C-25.62010175 9.38722998 -23.37356075 8.4838256 -21.12750244 7.57922363 C-17.97174116 6.3086048 -14.8142446 5.04239978 -11.65625 3.77734375 C-10.70608002 3.3937822 -9.75591003 3.01022064 -8.77694702 2.61503601 C-7.91018341 2.26890762 -7.0434198 1.92277924 -6.15039062 1.56616211 C-5.39326782 1.26213974 -4.63614502 0.95811737 -3.8560791 0.6448822 C-2 0 -2 0 0 0 Z " fill="#38B6FF" transform="translate(218,168)"/>
<path d="M0 0 C4.28666736 -0.07462728 8.57298207 -0.12882508 12.86010742 -0.16479492 C14.31590368 -0.17980313 15.77165532 -0.20021633 17.22729492 -0.22631836 C19.33002789 -0.26305676 21.43215885 -0.2798056 23.53515625 -0.29296875 C24.797229 -0.3086792 26.05930176 -0.32438965 27.35961914 -0.34057617 C32.22295056 0.11441325 36.18210222 1.41666967 39.9375 4.6875 C41.50963755 8.10921115 41.53309904 11.34133401 41 15 C39.20730333 19.15150807 36.61983266 21.35850049 33 24 C33.928125 24.556875 34.85625 25.11375 35.8125 25.6875 C39.10013709 28.07264848 40.57584986 29.23019082 42 33 C42.19569671 37.47656216 41.58546605 40.96417545 39.375 44.875 C34.32842586 49.39035581 29.3776612 50.37825315 22.75390625 50.29296875 C22.09792953 50.28872391 21.44195282 50.28447906 20.76609802 50.28010559 C18.69779089 50.26348779 16.63050599 50.22587238 14.5625 50.1875 C13.14910275 50.17243111 11.73569002 50.15874659 10.32226562 50.14648438 C6.88118565 50.11364104 3.44069281 50.06198015 0 50 C0 49.01 0 48.02 0 47 C0.48699371 46.52111328 0.97398743 46.04222656 1.47573853 45.54882812 C4.12886267 42.85294335 3.42541229 39.08160767 3.3984375 35.5 C3.40130768 34.66791016 3.40417786 33.83582031 3.40713501 32.97851562 C3.40917562 31.22004516 3.40364593 29.46155199 3.39111328 27.703125 C3.37505902 25.00990087 3.39096145 22.3181774 3.41015625 19.625 C3.40817382 17.91666335 3.40433014 16.20832764 3.3984375 14.5 C3.40754654 13.29053711 3.40754654 13.29053711 3.4168396 12.05664062 C3.36151114 7.66336043 3.05183729 6.00103329 0 3 C0 2.01 0 1.02 0 0 Z M15 4 C15 9.94 15 15.88 15 22 C23.40371521 22.67082039 23.40371521 22.67082039 28 20 C30.54074553 16.56999354 30.44368738 13.14108223 30 9 C27.78136971 6.09282927 26.48055071 5.16018357 23 4 C20.36 4 17.72 4 15 4 Z M15 26 C15 32.6 15 39.2 15 46 C22.78569784 46.1642691 22.78569784 46.1642691 29 43 C30.8457676 39.30846481 30.48175083 35.02978061 30 31 C27.80873184 27.90200019 26.58943664 27.19647888 23 26 C20.36 26 17.72 26 15 26 Z " fill="#8D54FF" transform="translate(319,59)"/>
<path d="M0 0 C3.99993747 -0.05855764 7.99976308 -0.09378299 12 -0.125 C13.12535156 -0.14175781 14.25070312 -0.15851563 15.41015625 -0.17578125 C22.80415982 -0.21902104 29.24681304 -0.03977552 35.875 3.5625 C38.92028305 7.05561879 39.82111219 10.39558345 40 15 C38.53118919 20.2704388 36.53160457 22.97893029 32 26 C31.34 26.33 30.68 26.66 30 27 C30.65355469 27.67482422 30.65355469 27.67482422 31.3203125 28.36328125 C35.70948906 33.10397196 38.77200972 37.8941095 41.640625 43.6796875 C42.93084143 46.2698799 42.93084143 46.2698799 46 48 C46 48.66 46 49.32 46 50 C41.38 50 36.76 50 32 50 C31.45730469 48.89140625 30.91460938 47.7828125 30.35546875 46.640625 C29.63302726 45.17697731 28.91035908 43.7134415 28.1875 42.25 C27.83107422 41.52039063 27.47464844 40.79078125 27.10742188 40.0390625 C24.60657872 34.63028007 24.60657872 34.63028007 21 30 C19.02 29.67 17.04 29.34 15 29 C15.33 34.94 15.66 40.88 16 47 C17.485 47.495 17.485 47.495 19 48 C19 48.66 19 49.32 19 50 C12.73 50 6.46 50 0 50 C0.33 49.01 0.66 48.02 1 47 C1.99 46.505 1.99 46.505 3 46 C3.07401579 40.05520371 3.12853813 34.11067407 3.16479492 28.16552734 C3.17990526 26.14204234 3.20039437 24.1185902 3.22631836 22.09521484 C3.26260328 19.19099835 3.27970355 16.28721385 3.29296875 13.3828125 C3.30845261 12.47443634 3.32393646 11.56606018 3.33988953 10.63015747 C3.34011612 9.78943695 3.34034271 8.94871643 3.34057617 8.08251953 C3.34723801 7.34083527 3.35389984 6.599151 3.36076355 5.83499146 C3.24171158 5.22944427 3.12265961 4.62389709 3 4 C2.01 3.34 1.02 2.68 0 2 C0 1.34 0 0.68 0 0 Z M15 4 C15 10.93 15 17.86 15 25 C22.45692046 25.7173806 22.45692046 25.7173806 25.9375 23.125 C28.78449076 20.19173679 29.15443396 18.60615071 29.1875 14.625 C29.20876953 13.46871094 29.20876953 13.46871094 29.23046875 12.2890625 C28.97473321 9.7490451 28.32204996 8.17024688 27 6 C23.09967385 2.99974912 20.42015979 4 15 4 Z " fill="#38B6FF" transform="translate(485,299)"/>
<path d="M0 0 C3.8124338 -0.05872928 7.62474906 -0.09383916 11.4375 -0.125 C12.50677734 -0.14175781 13.57605469 -0.15851563 14.67773438 -0.17578125 C30.27459016 -0.27117486 30.27459016 -0.27117486 36 4.5 C39.09727355 8.37159194 39.3435023 10.83569612 39.28125 15.68359375 C38.69095468 20.54533158 35.81350402 23.29742834 32.25 26.375 C31.5075 26.91125 30.765 27.4475 30 28 C30.75023437 28.52464844 31.50046875 29.04929687 32.2734375 29.58984375 C35.38488123 32.34021736 36.7796311 34.85912269 38.625 38.5625 C40.47617483 42.25228512 42.01204455 45.16596953 45 48 C45 48.66 45 49.32 45 50 C33.56561126 51.20538212 33.56561126 51.20538212 30.234375 48.640625 C28.89713595 46.48321267 27.94152136 44.35917329 27 42 C24.31570484 34.4514224 24.31570484 34.4514224 19.0625 29.01171875 C16.93201705 28.65407103 16.93201705 28.65407103 14 29 C14.08750555 31.22988284 14.19569061 33.45896005 14.3125 35.6875 C14.37050781 36.92886719 14.42851563 38.17023438 14.48828125 39.44921875 C15.01289182 43.08945547 15.97802002 44.99142389 18 48 C18 48.66 18 49.32 18 50 C12.06 50 6.12 50 0 50 C0.33 49.01 0.66 48.02 1 47 C1.66 47 2.32 47 3 47 C3 32.48 3 17.96 3 3 C2.01 2.67 1.02 2.34 0 2 C0 1.34 0 0.68 0 0 Z M14 5 C13.91330568 6.4887186 13.89296506 7.981445 13.90234375 9.47265625 C13.90556641 10.37177734 13.90878906 11.27089844 13.91210938 12.19726562 C13.92048828 13.14279297 13.92886719 14.08832031 13.9375 15.0625 C13.94201172 16.01189453 13.94652344 16.96128906 13.95117188 17.93945312 C13.9629989 20.29303065 13.97947975 22.64648477 14 25 C15.43705434 25.05592311 16.87473906 25.09579991 18.3125 25.12890625 C19.11300781 25.15283447 19.91351562 25.1767627 20.73828125 25.20141602 C23.29251895 25.16057784 23.29251895 25.16057784 26 22.9375 C28.4223692 19.37964524 29 17.30255233 29 13 C27.90680182 8.90050682 26.62086321 6.4139088 23 4 C18.13536122 3.30200503 18.13536122 3.30200503 14 5 Z " fill="#38B6FF" transform="translate(652,299)"/>
<path d="M0 0 C5.94 0 11.88 0 18 0 C16 4 16 4 15 5 C14.92674832 7.86267567 14.90761795 10.700719 14.9375 13.5625 C14.94201172 14.36880859 14.94652344 15.17511719 14.95117188 16.00585938 C14.96299482 18.00393756 14.98093086 20.00197783 15 22 C20.43156082 20.71502988 22.644217 18.63151417 25.9375 14.1875 C26.73027344 13.14980469 27.52304687 12.11210937 28.33984375 11.04296875 C30.25515951 8.18056613 30.25515951 8.18056613 29.81640625 5.30078125 C29.54699219 4.54152344 29.27757812 3.78226562 29 3 C28.67 2.01 28.34 1.02 28 0 C33.94 0 39.88 0 46 0 C44.8369892 3.48903239 43.73144728 3.83972045 40.75 5.703125 C35.70205047 9.44401617 31.83929563 15.08570159 28 20 C29.71059386 25.20524265 32.78517454 29.490127 35.8125 34 C36.33392578 34.7940625 36.85535156 35.588125 37.39257812 36.40625 C39.68582297 39.8418228 41.90160572 43.0670776 44.88671875 45.9375 C45.58410156 46.618125 46.28148437 47.29875 47 48 C47 48.66 47 49.32 47 50 C40.73 50 34.46 50 28 50 C28.33 48.02 28.66 46.04 29 44 C28.35216232 41.84494463 28.35216232 41.84494463 27.0859375 39.984375 C26.65410156 39.29085937 26.22226562 38.59734375 25.77734375 37.8828125 C25.31457031 37.17898438 24.85179687 36.47515625 24.375 35.75 C23.93542969 35.03070313 23.49585938 34.31140625 23.04296875 33.5703125 C20.16072938 29.05677636 19.38038634 28.15215454 14 26 C14.33 32.93 14.66 39.86 15 47 C15.99 47.33 16.98 47.66 18 48 C18 48.66 18 49.32 18 50 C12.06 50 6.12 50 0 50 C0.66 48.68 1.32 47.36 2 46 C3.23187151 42.30438546 3.181487 38.85840275 3.203125 35.0078125 C3.20882507 34.22485809 3.21452515 33.44190369 3.22039795 32.63522339 C3.22983845 30.97932279 3.23637816 29.32340349 3.24023438 27.66748047 C3.24993752 25.14126634 3.28096782 22.61586692 3.3125 20.08984375 C3.31903075 18.47917149 3.32428094 16.86849342 3.328125 15.2578125 C3.3404718 14.50557404 3.3528186 13.75333557 3.36553955 12.978302 C3.34625175 8.41078175 2.6140692 5.72612702 0 2 C0 1.34 0 0.68 0 0 Z " fill="#38B6FF" transform="translate(543,299)"/>
<path d="M0 0 C4.33320395 -0.08772579 8.66617668 -0.14063579 13 -0.1875 C14.22074219 -0.21263672 15.44148438 -0.23777344 16.69921875 -0.26367188 C31.43398446 -0.38314295 31.43398446 -0.38314295 37.4375 5.3125 C39.93152997 9.60223155 40.3283068 13.1682103 39.5 18 C38.17853699 22.74815328 35.05371433 25.39081639 31 28 C25.83608171 29.7213061 20.40708764 29.05353552 15 29 C15.33 34.94 15.66 40.88 16 47 C16.99 47 17.98 47 19 47 C19 47.99 19 48.98 19 50 C12.73 50 6.46 50 0 50 C0 49.01 0 48.02 0 47 C0.48699371 46.52111328 0.97398743 46.04222656 1.47573853 45.54882812 C4.12886267 42.85294335 3.42541229 39.08160767 3.3984375 35.5 C3.40130768 34.66791016 3.40417786 33.83582031 3.40713501 32.97851562 C3.40917562 31.22004516 3.40364593 29.46155199 3.39111328 27.703125 C3.37505902 25.00990087 3.39096145 22.3181774 3.41015625 19.625 C3.40817382 17.91666335 3.40433014 16.20832764 3.3984375 14.5 C3.40754654 13.29053711 3.40754654 13.29053711 3.4168396 12.05664062 C3.36151114 7.66336043 3.05183729 6.00103329 0 3 C0 2.01 0 1.02 0 0 Z M15 4 C15 10.93 15 17.86 15 25 C21.87884005 25.20234184 21.87884005 25.20234184 27 22 C28.28282363 19.43435275 28.20391953 17.48966931 28.25 14.625 C28.27578125 13.66851562 28.3015625 12.71203125 28.328125 11.7265625 C28.17505542 8.53880106 28.17505542 8.53880106 25 5 C21.7 4.67 18.4 4.34 15 4 Z " fill="#8D54FF" transform="translate(55,59)"/>
<path d="M0 0 C3.63 0 7.26 0 11 0 C12.83431857 6.0502467 14.66737641 12.10087336 16.49926758 18.15185547 C17.1226189 20.21022869 17.74631445 22.2684977 18.37036133 24.32666016 C19.26734512 27.28520813 20.16308987 30.2441288 21.05859375 33.203125 C21.3377916 34.12305237 21.61698944 35.04297974 21.90464783 35.99078369 C22.16484207 36.8513739 22.42503632 37.71196411 22.69311523 38.59863281 C22.92183823 39.35364075 23.15056122 40.10864868 23.38621521 40.88653564 C24 43 24 43 24.3941803 45.21258545 C24.5941008 45.80243225 24.7940213 46.39227905 25 47 C25.99 47.33 26.98 47.66 28 48 C28 48.66 28 49.32 28 50 C21.4 50 14.8 50 8 50 C8 49.01 8 48.02 8 47 C8.99 46.505 8.99 46.505 10 46 C10 42.37 10 38.74 10 35 C4.39 35 -1.22 35 -7 35 C-7.33 38.96 -7.66 42.92 -8 47 C-7.01 47 -6.02 47 -5 47 C-5 47.99 -5 48.98 -5 50 C-10.28 50 -15.56 50 -21 50 C-20 47 -20 47 -18.18066406 45.42480469 C-14.94542409 41.82735693 -13.72508139 37.71625311 -12.109375 33.203125 C-11.75989807 32.25435486 -11.41042114 31.30558472 -11.050354 30.32806396 C-9.9397964 27.30574699 -8.8447406 24.27807749 -7.75 21.25 C-6.99841211 19.19624239 -6.24581937 17.1428522 -5.4921875 15.08984375 C-3.64978402 10.06408036 -1.82126018 5.03346195 0 0 Z M2 10 C-0.31 16.6 -2.62 23.2 -5 30 C-0.71 30 3.58 30 8 30 C7.3808361 27.415141 6.75492318 24.83223828 6.125 22.25 C5.95097656 21.52039063 5.77695312 20.79078125 5.59765625 20.0390625 C5.42363281 19.33007812 5.24960937 18.62109375 5.0703125 17.890625 C4.91320801 17.24125977 4.75610352 16.59189453 4.59423828 15.92285156 C3.92993355 13.58789239 3.92993355 13.58789239 2 10 Z " fill="#9058FF" transform="translate(279,59)"/>
<path d="M0 0 C3.63 0 7.26 0 11 0 C12.83431857 6.0502467 14.66737641 12.10087336 16.49926758 18.15185547 C17.1226189 20.21022869 17.74631445 22.2684977 18.37036133 24.32666016 C19.26734512 27.28520813 20.16308987 30.2441288 21.05859375 33.203125 C21.3377916 34.12305237 21.61698944 35.04297974 21.90464783 35.99078369 C22.16484207 36.8513739 22.42503632 37.71196411 22.69311523 38.59863281 C22.92183823 39.35364075 23.15056122 40.10864868 23.38621521 40.88653564 C24 43 24 43 24.3941803 45.21258545 C24.5941008 45.80243225 24.7940213 46.39227905 25 47 C25.99 47.33 26.98 47.66 28 48 C28 48.66 28 49.32 28 50 C21.4 50 14.8 50 8 50 C8 49.01 8 48.02 8 47 C8.99 46.505 8.99 46.505 10 46 C10 42.37 10 38.74 10 35 C4.39 35 -1.22 35 -7 35 C-7.33 38.96 -7.66 42.92 -8 47 C-7.01 47 -6.02 47 -5 47 C-5 47.99 -5 48.98 -5 50 C-10.28 50 -15.56 50 -21 50 C-20 47 -20 47 -18.18066406 45.42480469 C-14.94542409 41.82735693 -13.72508139 37.71625311 -12.109375 33.203125 C-11.75989807 32.25435486 -11.41042114 31.30558472 -11.050354 30.32806396 C-9.9397964 27.30574699 -8.8447406 24.27807749 -7.75 21.25 C-6.99841211 19.19624239 -6.24581937 17.1428522 -5.4921875 15.08984375 C-3.64978402 10.06408036 -1.82126018 5.03346195 0 0 Z M2 10 C-0.31 16.6 -2.62 23.2 -5 30 C-0.71 30 3.58 30 8 30 C7.3808361 27.415141 6.75492318 24.83223828 6.125 22.25 C5.95097656 21.52039063 5.77695313 20.79078125 5.59765625 20.0390625 C5.42363281 19.33007812 5.24960938 18.62109375 5.0703125 17.890625 C4.91320801 17.24125977 4.75610352 16.59189453 4.59423828 15.92285156 C3.92993355 13.58789239 3.92993355 13.58789239 2 10 Z " fill="#9058FF" transform="translate(125,59)"/>
<path d="M0 0 C11.88 0 23.76 0 36 0 C36 3.63 36 7.26 36 11 C34.35 11 32.7 11 31 11 C30.484375 10.030625 29.96875 9.06125 29.4375 8.0625 C27.32841566 4.7467726 27.32841566 4.7467726 24.08203125 4.37890625 C21.0608129 4.14868445 18.02926158 4.06585351 15 4 C15 9.94 15 15.88 15 22 C18.96 21.505 18.96 21.505 23 21 C24.5899433 19.07935207 24.5899433 19.07935207 25 17 C26.32 17 27.64 17 29 17 C29 21.62 29 26.24 29 31 C27.68 31 26.36 31 25 31 C24.835 30.360625 24.67 29.72125 24.5 29.0625 C24.005 28.381875 23.51 27.70125 23 27 C20.36 26.67 17.72 26.34 15 26 C15 32.6 15 39.2 15 46 C16.753125 45.896875 18.50625 45.79375 20.3125 45.6875 C21.29863281 45.62949219 22.28476562 45.57148438 23.30078125 45.51171875 C26.29942677 44.94323458 27.1845486 44.38996134 29 42 C29.474375 41.113125 29.94875 40.22625 30.4375 39.3125 C30.953125 38.549375 31.46875 37.78625 32 37 C33.32 37 34.64 37 36 37 C36.02696365 38.79158489 36.04637917 40.58328473 36.0625 42.375 C36.07410156 43.37273437 36.08570313 44.37046875 36.09765625 45.3984375 C36 48 36 48 35 50 C23.45 50 11.9 50 0 50 C0.33 49.01 0.66 48.02 1 47 C1.66 47 2.32 47 3 47 C3 32.48 3 17.96 3 3 C2.01 2.67 1.02 2.34 0 2 C0 1.34 0 0.68 0 0 Z " fill="#38B6FF" transform="translate(601,299)"/>
<path d="M0 0 C3.3 0 6.6 0 10 0 C10.37286133 1.31194336 10.74572266 2.62388672 11.12988281 3.97558594 C12.51819385 8.84727912 13.92372056 13.71386408 15.33447266 18.57910156 C15.94236606 20.68452011 16.54559738 22.7912906 17.14404297 24.89941406 C18.00563641 27.93142282 18.88394287 30.95815567 19.765625 33.984375 C20.02933899 34.92617615 20.29305298 35.86797729 20.5647583 36.83831787 C21.97511965 41.61575714 23.06033754 44.71516465 27 48 C27 48.66 27 49.32 27 50 C20.4 50 13.8 50 7 50 C7 49.34 7 48.68 7 48 C7.99 47.34 8.98 46.68 10 46 C9.67 42.04 9.34 38.08 9 34 C1.08 34.495 1.08 34.495 -7 35 C-8.61737724 39.85213172 -9.22942798 42.18201244 -9 47 C-8.01 47.33 -7.02 47.66 -6 48 C-6 48.66 -6 49.32 -6 50 C-10.95 50 -15.9 50 -21 50 C-20 47 -20 47 -18.62475586 45.77368164 C-16.19919979 43.12579812 -15.22483635 39.94033033 -14.00390625 36.62109375 C-13.7290892 35.8943898 -13.45427216 35.16768585 -13.17112732 34.41896057 C-12.29391686 32.09460715 -11.42792406 29.76626432 -10.5625 27.4375 C-9.70012755 25.13985372 -8.83547608 22.84307332 -7.97079468 20.54629517 C-7.41363124 19.06537992 -6.85748369 17.58408203 -6.30239868 16.10238647 C-4.27733682 10.70322336 -2.17202745 5.34201347 0 0 Z M1 10 C-0.19984601 13.12040043 -1.38274177 16.24695531 -2.5625 19.375 C-2.90474609 20.26445312 -3.24699219 21.15390625 -3.59960938 22.0703125 C-3.91865234 22.92109375 -4.23769531 23.771875 -4.56640625 24.6484375 C-4.86490479 25.43395996 -5.16340332 26.21948242 -5.47094727 27.02880859 C-6.2487287 29.05569196 -6.2487287 29.05569196 -5 31 C-1.04 31 2.92 31 7 31 C8.77238163 27.45523674 6.72929005 23.60493978 5.6875 19.9375 C5.46126953 19.09638672 5.23503906 18.25527344 5.00195312 17.38867188 C4.77830078 16.58880859 4.55464844 15.78894531 4.32421875 14.96484375 C4.11885498 14.2287085 3.91349121 13.49257324 3.7019043 12.73413086 C3.13905678 10.79398785 3.13905678 10.79398785 1 10 Z " fill="#38B6FF" transform="translate(446,299)"/>
<path d="M0 0 C1.18613892 0.00785522 1.18613892 0.00785522 2.39624023 0.01586914 C3.67724609 0.02070312 3.67724609 0.02070312 4.98413086 0.02563477 C5.88196289 0.03401367 6.77979492 0.04239258 7.70483398 0.05102539 C8.6065332 0.05553711 9.50823242 0.06004883 10.43725586 0.06469727 C12.67234712 0.07652315 14.90730835 0.09300319 17.14233398 0.11352539 C16.14233398 3.11352539 16.14233398 3.11352539 14.14233398 4.11352539 C13.81233398 17.97352539 13.48233398 31.83352539 13.14233398 46.11352539 C16.77233398 45.45352539 20.40233398 44.79352539 24.14233398 44.11352539 C26.08545082 40.76955688 27.22584819 38.67682214 28.14233398 35.11352539 C29.79233398 35.11352539 31.44233398 35.11352539 33.14233398 35.11352539 C33.1691881 37.42596331 33.18866239 39.73848809 33.20483398 42.05102539 C33.21643555 43.33879883 33.22803711 44.62657227 33.23999023 45.95336914 C33.14233398 49.11352539 33.14233398 49.11352539 32.14233398 50.11352539 C29.54874077 50.20204068 26.98193707 50.22878484 24.38842773 50.21118164 C23.61298111 50.20976669 22.83753448 50.20835175 22.03858948 50.20689392 C19.55229904 50.20127884 17.06609738 50.18872385 14.57983398 50.17602539 C12.89819466 50.17101233 11.21655392 50.16644909 9.53491211 50.16235352 C5.40401832 50.15130452 1.27319122 50.13402984 -2.85766602 50.11352539 C-2.52766602 49.12352539 -2.19766602 48.13352539 -1.85766602 47.11352539 C-0.86766602 46.61852539 -0.86766602 46.61852539 0.14233398 46.11352539 C0.21642931 40.18703965 0.27091014 34.26082286 0.30712891 28.33398438 C0.32222577 26.31733505 0.34270513 24.3007186 0.36865234 22.28417969 C0.4049961 19.38736868 0.42205118 16.49099133 0.43530273 13.59399414 C0.45078659 12.69077927 0.46627045 11.78756439 0.48222351 10.85697937 C0.4824501 10.01633438 0.4826767 9.17568939 0.48291016 8.30957031 C0.48957199 7.57010666 0.49623383 6.83064301 0.50309753 6.06877136 C0.04630252 3.59305945 -0.96001396 2.70194176 -2.85766602 1.11352539 C-1.85766602 0.11352539 -1.85766602 0.11352539 0 0 Z " fill="#9059FF" transform="translate(215.857666015625,58.886474609375)"/>
<path d="M0 0 C1.18613892 0.00785522 1.18613892 0.00785522 2.39624023 0.01586914 C3.67724609 0.02070312 3.67724609 0.02070312 4.98413086 0.02563477 C5.88196289 0.03401367 6.77979492 0.04239258 7.70483398 0.05102539 C8.6065332 0.05553711 9.50823242 0.06004883 10.43725586 0.06469727 C12.67234712 0.07652315 14.90730835 0.09300319 17.14233398 0.11352539 C16.14233398 3.11352539 16.14233398 3.11352539 14.14233398 4.11352539 C13.81233398 17.97352539 13.48233398 31.83352539 13.14233398 46.11352539 C16.77233398 45.45352539 20.40233398 44.79352539 24.14233398 44.11352539 C26.08545082 40.76955688 27.22584819 38.67682214 28.14233398 35.11352539 C29.79233398 35.11352539 31.44233398 35.11352539 33.14233398 35.11352539 C33.1691881 37.42596331 33.18866239 39.73848809 33.20483398 42.05102539 C33.21643555 43.33879883 33.22803711 44.62657227 33.23999023 45.95336914 C33.14233398 49.11352539 33.14233398 49.11352539 32.14233398 50.11352539 C29.54874077 50.20204068 26.98193707 50.22878484 24.38842773 50.21118164 C23.61298111 50.20976669 22.83753448 50.20835175 22.03858948 50.20689392 C19.55229904 50.20127884 17.06609738 50.18872385 14.57983398 50.17602539 C12.89819466 50.17101233 11.21655392 50.16644909 9.53491211 50.16235352 C5.40401832 50.15130452 1.27319122 50.13402984 -2.85766602 50.11352539 C-2.52766602 49.12352539 -2.19766602 48.13352539 -1.85766602 47.11352539 C-0.86766602 46.61852539 -0.86766602 46.61852539 0.14233398 46.11352539 C0.21642931 40.18703965 0.27091014 34.26082286 0.30712891 28.33398438 C0.32222577 26.31733505 0.34270513 24.3007186 0.36865234 22.28417969 C0.4049961 19.38736868 0.42205118 16.49099133 0.43530273 13.59399414 C0.45078659 12.69077927 0.46627045 11.78756439 0.48222351 10.85697937 C0.4824501 10.01633438 0.4826767 9.17568939 0.48291016 8.30957031 C0.48957199 7.57010666 0.49623383 6.83064301 0.50309753 6.06877136 C0.04630252 3.59305945 -0.96001396 2.70194176 -2.85766602 1.11352539 C-1.85766602 0.11352539 -1.85766602 0.11352539 0 0 Z " fill="#9059FF" transform="translate(166.857666015625,58.886474609375)"/>
<path d="M0 0 C1.30066406 0.00644531 2.60132813 0.01289063 3.94140625 0.01953125 C7.4375 0.1875 7.4375 0.1875 11.4375 1.1875 C11.4375 4.4875 11.4375 7.7875 11.4375 11.1875 C9.125 11 9.125 11 6.4375 10.1875 C5.756875 8.95 5.756875 8.95 5.0625 7.6875 C3.59330518 4.82035435 3.59330518 4.82035435 0 4.25 C-4.19182371 4.10278332 -4.19182371 4.10278332 -7.5625 6.1875 C-8.63000418 9.00876104 -8.68681499 10.68373991 -7.96484375 13.609375 C-6.04757739 17.13415439 -3.73636168 18.19427422 -0.25 20.125 C10.34446393 26.31282728 10.34446393 26.31282728 12.046875 32.34765625 C12.89847642 37.44874876 12.4734465 40.83597668 9.4375 45.1875 C4.3292633 49.91261895 0.29425539 50.34888787 -6.4375 50.3125 C-7.14519531 50.31636719 -7.85289062 50.32023437 -8.58203125 50.32421875 C-12.45762563 50.31700163 -15.72422901 49.9551542 -19.5625 49.1875 C-19.5625 45.5575 -19.5625 41.9275 -19.5625 38.1875 C-18.2425 38.1875 -16.9225 38.1875 -15.5625 38.1875 C-15.170625 39.13625 -14.77875 40.085 -14.375 41.0625 C-12.84616662 44.2621944 -12.84616662 44.2621944 -10.25 45.625 C-6.36273136 46.43861437 -3.1133094 45.9629047 0.4375 44.1875 C1.34262331 40.56700677 1.87105262 38.17936857 0.3515625 34.703125 C-2.04969859 31.54718186 -4.55285574 30.12823048 -8 28.1875 C-13.4090333 25.13530374 -17.56492287 22.46525343 -19.4375 16.3125 C-19.59234253 12.44143682 -19.02557992 9.77869616 -17.5625 6.1875 C-12.28660833 0.91160833 -7.30078626 -0.0797504 0 0 Z " fill="#38B6FF" transform="translate(402.5625,298.8125)"/>
</svg>
